<svg xmlns="http://www.w3.org/2000/svg" width="430" height="430" style="width:100%;height:100%;transform:translate3d(0,0,0);content-visibility:visible" viewBox="0 0 430 430"><defs><mask id="z" mask-type="alpha"><g filter="url(#a)"><path fill="#fff" d="M0 0h430v430H0z" opacity="0"/><use xmlns:ns1="http://www.w3.org/1999/xlink" ns1:href="#b"/></g></mask><mask id="y" mask-type="alpha"><use xmlns:ns2="http://www.w3.org/1999/xlink" ns2:href="#c"/></mask><mask id="w" mask-type="alpha"><use xmlns:ns3="http://www.w3.org/1999/xlink" ns3:href="#d"/></mask><mask id="u" mask-type="alpha"><use xmlns:ns5="http://www.w3.org/1999/xlink" ns5:href="#e"/></mask><mask id="t" mask-type="alpha"><use xmlns:ns6="http://www.w3.org/1999/xlink" ns6:href="#f"/></mask><mask id="r" mask-type="alpha"><use xmlns:ns7="http://www.w3.org/1999/xlink" ns7:href="#g"/></mask><mask id="p" mask-type="alpha"><use xmlns:ns9="http://www.w3.org/1999/xlink" ns9:href="#h"/></mask><mask id="o" mask-type="alpha"><use xmlns:ns10="http://www.w3.org/1999/xlink" ns10:href="#i"/></mask><mask id="m" mask-type="alpha"><use xmlns:ns11="http://www.w3.org/1999/xlink" ns11:href="#j"/></mask><clipPath id="k"><path d="M0 0h430v430H0z"/></clipPath><clipPath id="v"><path d="M0 0h430v430H0z"/></clipPath><clipPath id="x"><path d="M0 0h430v430H0z"/></clipPath><clipPath id="q"><path d="M0 0h430v430H0z"/></clipPath><clipPath id="s"><path d="M0 0h430v430H0z"/></clipPath><clipPath id="l"><path d="M0 0h430v430H0z"/></clipPath><clipPath id="n"><path d="M0 0h430v430H0z"/></clipPath><g id="d" style="display:none"><path/><path fill-opacity="0" stroke-linecap="round" stroke-linejoin="round"/></g><g id="f" style="display:block"><path fill="red" d="M54.881 215c0 88.431 71.688 160.119 160.119 160.119S375.119 303.431 375.119 215 303.431 54.881 215 54.881 54.881 126.569 54.881 215z"/><path fill-opacity="0" stroke="#121331" stroke-linecap="round" stroke-linejoin="round" stroke-width="0" d="M54.881 215c0 88.431 71.688 160.119 160.119 160.119S375.119 303.431 375.119 215 303.431 54.881 215 54.881 54.881 126.569 54.881 215z"/></g><g id="e" fill="#2CA58D" style="display:block"><path d="m318.205 289.694-8.66 32.792-41.477 59.007s-.764 18.284-1.194 22.801c-7.823-1.802-12.584-7.088-14.445-15.161 0 0-1.024-40.4-10.166-59.384-2.439-5.065-10.977-13.669-17.612-19.911a22.856 22.856 0 0 1-7.043-19.277l1.384-11.974 30.063-27.361s30.475 23.78 69.15 38.468zm-96.956-62.069-19.56 16.945-51.523-28.121-12.06-68.553s24.512-25.487 12.357-41.504c-6.504-8.571-10.476-11.444-19.499-7.239l-28.242-.423-7.033-28.359 17.837-17.618 155.684-.361 10.345 21.158-36.483 23.425L263.227 112l27.152-2.313s9.297 12.627 9.693 15.905c1.125 9.315-5.227 26.868-5.227 26.868l-44.538 1.686-13.817 27.326-26.914-20.095s-26.137 3.99-22.709 22.347l20.177 14.708 14.205 29.193zM463.115 88.056l-27.171 13.208c-4.823 2.975-26.501 17.638-26.501 17.638l32.806 1.254 50.839 18.336-12.878 30.298s-13.975 6.168-22.855-.519c-4.854-3.655-15.68-11.632-21.726-12.235-9.748-.972-47.549 19.559-47.549 19.559-22.044 17.346 2.291 34.405 16.338 51.087l27.141-2.8c1.695 1.889 7.362 46.441-.666 70.525 4.389 17.993 22.514 35.042 29.583 35.042 12.086 0 60.524-94.801 65.998-109.429l-27.328-4.171 20.621-34.78 8.812-31.339c11.542 9.548 38.972 27.517 48.007 53.822l12.999 1.187s5.319-33.039 22.604-33.48c4.475-.114 36.406 34.188 36.406 34.188s7.031-3.482 10.704-7.155c4.47-4.47-2.973-26.849-2.973-26.849s12.804-71.886 27.439-72.672l34.18-1.87c3.538 1.616 23.578-29.546 20.61-31.217-41.649-23.44-71.805-3.102-176.079-15.222-6.613-.769-17.382 17.854-17.382 17.854L506.195 79.02l-11.16-31.915-41.72-2.839c-7.698 4.212-28.059 22.752-28.059 22.752l37.859 21.038zm-188.09-68.657s29.426 4.588 42.032 16.424c12.606 11.836 8.393 30.921 11.842 32.409 9.577 4.133 23.503-34.031 23.503-34.031L413.054 6.71S285.198-7.747 275.025 19.399zm488.512 311.112-22.172-23.956-42.679 32.91c-13.879 2.83-28.668 14.7-29.379 28.847l-1.341 26.678 55.049-12.743 10.709 15.404a24.461 24.461 0 0 0 21.696 10.444l13.214-.872 27.336-37.452a12.949 12.949 0 0 0 .68-14.234l-11.96-20.183-2.803-30.073-18.35 25.23zM617.766 223.037l-5.097 8.41 27.014 36.954 56.323 17.33 18.86-1.274-64.479-24.976-32.621-36.444z" class="primary"/><path fill-opacity=".5" d="m103.58 74.694-8.66 32.792-41.477 59.007s-.764 18.284-1.194 22.801c-7.823-1.802-12.584-7.088-14.445-15.161 0 0-1.024-40.4-10.166-59.384-2.439-5.065-10.977-13.669-17.612-19.911a22.856 22.856 0 0 1-7.043-19.277l1.384-11.974L34.43 36.226s30.475 23.78 69.15 38.468zM6.624 12.625l-19.56 16.945-51.523-28.121-12.06-68.553s24.512-25.487 12.357-41.504c-6.504-8.571-10.476-11.444-19.499-7.239l-28.242-.423-7.033-28.359 17.837-17.618 155.684-.361L64.93-141.45l-36.483 23.425L48.602-103l27.152-2.313s9.297 12.627 9.693 15.905c1.125 9.315-5.227 26.868-5.227 26.868l-44.538 1.686-13.817 27.326-26.914-20.095s-26.137 3.99-22.709 22.347l20.177 14.708L6.624 12.625zM248.49-126.944l-27.171 13.208c-4.823 2.975-26.501 17.638-26.501 17.638l32.806 1.254 50.839 18.336-12.878 30.298s-13.975 6.168-22.855-.519c-4.854-3.655-15.68-11.632-21.726-12.235-9.748-.972-47.549 19.559-47.549 19.559C151.411-22.059 175.746-5 189.793 11.682l27.141-2.8c1.695 1.889 7.362 46.441-.666 70.525 4.389 17.993 22.514 35.042 29.583 35.042 12.086 0 60.524-94.801 65.998-109.429L284.521.849l20.621-34.78 8.812-31.339c11.542 9.548 38.972 27.517 48.007 53.822l12.999 1.187s5.319-33.039 22.604-33.48c4.475-.114 36.406 34.188 36.406 34.188s7.031-3.482 10.704-7.155c4.47-4.47-2.973-26.849-2.973-26.849s12.804-71.886 27.439-72.672l34.18-1.87c3.538 1.616 23.578-29.546 20.61-31.217-41.649-23.44-71.805-3.102-176.079-15.222-6.613-.769-17.382 17.854-17.382 17.854L291.57-135.98l-11.16-31.915-41.72-2.839c-7.698 4.212-28.059 22.752-28.059 22.752l37.859 21.038zM60.4-195.601s29.426 4.588 42.032 16.424c12.606 11.836 8.393 30.921 11.842 32.409 9.577 4.133 23.503-34.031 23.503-34.031l60.652-27.491S70.573-222.747 60.4-195.601zm488.512 311.112L526.74 91.555l-42.679 32.91c-13.879 2.83-28.668 14.7-29.379 28.847l-1.341 26.678 55.049-12.743 10.709 15.404a24.461 24.461 0 0 0 21.696 10.444l13.214-.872 27.336-37.452a12.949 12.949 0 0 0 .68-14.234l-11.96-20.183-2.803-30.073-18.35 25.23zM403.141 8.037l-5.097 8.41 27.014 36.954 56.323 17.33 18.86-1.274-64.479-24.976-32.621-36.444z" class="primary" style="mix-blend-mode:multiply" transform="translate(214.625 215)"/><path d="m1082.205 289.694-8.66 32.792-41.477 59.007s-.764 18.284-1.194 22.801c-7.823-1.802-12.584-7.088-14.445-15.161 0 0-1.024-40.4-10.166-59.384-2.439-5.065-10.977-13.669-17.612-19.911a22.856 22.856 0 0 1-7.043-19.277l1.384-11.974 30.063-27.361s30.475 23.78 69.15 38.468zm-96.956-62.069-19.56 16.945-51.523-28.121-12.06-68.553s24.512-25.487 12.357-41.504c-6.504-8.571-10.476-11.444-19.499-7.239l-28.242-.423-7.033-28.359 17.837-17.618 155.684-.361 10.345 21.158-36.483 23.425L1027.227 112l27.152-2.313s9.297 12.627 9.693 15.905c1.125 9.315-5.227 26.868-5.227 26.868l-44.538 1.686-13.817 27.326-26.914-20.095s-26.137 3.99-22.709 22.347l20.177 14.708 14.205 29.193zm241.866-139.569-27.171 13.208c-4.823 2.975-26.501 17.638-26.501 17.638l32.806 1.254 50.839 18.336-12.878 30.298s-13.975 6.168-22.855-.519c-4.854-3.655-15.68-11.632-21.726-12.235-9.748-.972-47.549 19.559-47.549 19.559-22.044 17.346 2.291 34.405 16.338 51.087l27.141-2.8c1.695 1.889 7.362 46.441-.666 70.525 4.389 17.993 22.514 35.042 29.583 35.042 12.086 0 60.524-94.801 65.998-109.429l-27.328-4.171 20.621-34.78 8.812-31.339c11.542 9.548 38.972 27.517 48.007 53.822l12.999 1.187s5.319-33.039 22.604-33.48c4.475-.114 36.406 34.188 36.406 34.188s7.031-3.482 10.704-7.155c4.47-4.47-2.973-26.849-2.973-26.849s12.804-71.886 27.439-72.672l34.18-1.87c3.538 1.616 23.578-29.546 20.61-31.217-41.649-23.44-71.805-3.102-176.079-15.222-6.613-.769-17.382 17.854-17.382 17.854l-38.899 10.704-11.16-31.915-41.72-2.839c-7.698 4.212-28.059 22.752-28.059 22.752l37.859 21.038zm-188.09-68.657s29.426 4.588 42.032 16.424c12.606 11.836 8.393 30.921 11.842 32.409 9.577 4.133 23.503-34.031 23.503-34.031l60.652-27.491s-127.856-14.457-138.029 12.689zm488.512 311.112-22.172-23.956-42.679 32.91c-13.879 2.83-28.668 14.7-29.379 28.847l-1.341 26.678 55.049-12.743 10.709 15.404a24.461 24.461 0 0 0 21.696 10.444l13.214-.872 27.336-37.452a12.949 12.949 0 0 0 .68-14.234l-11.96-20.183-2.803-30.073-18.35 25.23zm-145.771-107.474-5.097 8.41 27.014 36.954 56.323 17.33 18.86-1.274-64.479-24.976-32.621-36.444z" class="primary"/><path fill-opacity=".5" d="m103.58 74.694-8.66 32.792-41.477 59.007s-.764 18.284-1.194 22.801c-7.823-1.802-12.584-7.088-14.445-15.161 0 0-1.024-40.4-10.166-59.384-2.439-5.065-10.977-13.669-17.612-19.911a22.856 22.856 0 0 1-7.043-19.277l1.384-11.974L34.43 36.226s30.475 23.78 69.15 38.468zM6.624 12.625l-19.56 16.945-51.523-28.121-12.06-68.553s24.512-25.487 12.357-41.504c-6.504-8.571-10.476-11.444-19.499-7.239l-28.242-.423-7.033-28.359 17.837-17.618 155.684-.361L64.93-141.45l-36.483 23.425L48.602-103l27.152-2.313s9.297 12.627 9.693 15.905c1.125 9.315-5.227 26.868-5.227 26.868l-44.538 1.686-13.817 27.326-26.914-20.095s-26.137 3.99-22.709 22.347l20.177 14.708L6.624 12.625zM248.49-126.944l-27.171 13.208c-4.823 2.975-26.501 17.638-26.501 17.638l32.806 1.254 50.839 18.336-12.878 30.298s-13.975 6.168-22.855-.519c-4.854-3.655-15.68-11.632-21.726-12.235-9.748-.972-47.549 19.559-47.549 19.559C151.411-22.059 175.746-5 189.793 11.682l27.141-2.8c1.695 1.889 7.362 46.441-.666 70.525 4.389 17.993 22.514 35.042 29.583 35.042 12.086 0 60.524-94.801 65.998-109.429L284.521.849l20.621-34.78 8.812-31.339c11.542 9.548 38.972 27.517 48.007 53.822l12.999 1.187s5.319-33.039 22.604-33.48c4.475-.114 36.406 34.188 36.406 34.188s7.031-3.482 10.704-7.155c4.47-4.47-2.973-26.849-2.973-26.849s12.804-71.886 27.439-72.672l34.18-1.87c3.538 1.616 23.578-29.546 20.61-31.217-41.649-23.44-71.805-3.102-176.079-15.222-6.613-.769-17.382 17.854-17.382 17.854L291.57-135.98l-11.16-31.915-41.72-2.839c-7.698 4.212-28.059 22.752-28.059 22.752l37.859 21.038zM60.4-195.601s29.426 4.588 42.032 16.424c12.606 11.836 8.393 30.921 11.842 32.409 9.577 4.133 23.503-34.031 23.503-34.031l60.652-27.491S70.573-222.747 60.4-195.601zm488.512 311.112L526.74 91.555l-42.679 32.91c-13.879 2.83-28.668 14.7-29.379 28.847l-1.341 26.678 55.049-12.743 10.709 15.404a24.461 24.461 0 0 0 21.696 10.444l13.214-.872 27.336-37.452a12.949 12.949 0 0 0 .68-14.234l-11.96-20.183-2.803-30.073-18.35 25.23zM403.141 8.037l-5.097 8.41 27.014 36.954 56.323 17.33 18.86-1.274-64.479-24.976-32.621-36.444z" class="primary" style="mix-blend-mode:multiply" transform="translate(978.625 215)"/></g><g id="g" style="display:block"><path fill="red" d="M54.881 215c0 88.431 71.688 160.119 160.119 160.119S375.119 303.431 375.119 215 303.431 54.881 215 54.881 54.881 126.569 54.881 215z"/><path fill-opacity="0" stroke="#121331" stroke-linecap="round" stroke-linejoin="round" stroke-width="0" d="M54.881 215c0 88.431 71.688 160.119 160.119 160.119S375.119 303.431 375.119 215 303.431 54.881 215 54.881 54.881 126.569 54.881 215z"/></g><g id="i" style="display:none"><path/><path fill-opacity="0" stroke-linecap="round" stroke-linejoin="round"/></g><g id="h" style="display:none"><path class="primary"/><path class="primary" style="mix-blend-mode:multiply"/><path class="primary"/><path class="primary" style="mix-blend-mode:multiply"/></g><g id="j" style="display:none"><path/><path fill-opacity="0" stroke-linecap="round" stroke-linejoin="round"/></g><path id="b" class="primary" style="display:none"/><path id="c" style="display:none"/><filter id="a" width="100%" height="100%" x="0%" y="0%" filterUnits="objectBoundingBox"><feComponentTransfer in="SourceGraphic"><feFuncA tableValues="1.0 0.0" type="table"/></feComponentTransfer></filter></defs><g clip-path="url(#k)"><g clip-path="url(#l)" style="display:none"><g style="display:none"><path class="secondary"/><path class="secondary" style="mix-blend-mode:multiply"/></g><g mask="url(#m)" style="display:none"><path class="secondary"/></g><g clip-path="url(#n)" mask="url(#o)" style="display:none"><g style="display:none"><path class="primary"/><path class="primary" style="mix-blend-mode:multiply"/><path class="primary"/><path class="primary" style="mix-blend-mode:multiply"/></g><g mask="url(#p)" style="display:none"><path class="primary"/><path class="primary"/></g></g></g><g clip-path="url(#q)" style="display:block"><g fill="#4BB3FD" style="display:block"><path d="M54.881 215c0 88.431 71.688 160.119 160.119 160.119S375.119 303.431 375.119 215 303.431 54.881 215 54.881 54.881 126.569 54.881 215z" class="secondary"/><path fill-opacity=".5" d="M-160.119 0c0 88.431 71.688 160.119 160.119 160.119S160.119 88.431 160.119 0 88.431-160.119 0-160.119-160.119-88.431-160.119 0z" class="secondary" style="mix-blend-mode:multiply" transform="translate(215 215)"/></g><g mask="url(#r)" style="display:block"><path fill="#4BB3FD" d="M72.881 215c0 88.431 71.688 160.119 160.119 160.119S393.119 303.431 393.119 215 321.431 54.881 233 54.881 72.881 126.569 72.881 215z" class="secondary"/></g><g clip-path="url(#s)" mask="url(#t)" style="display:block"><g fill="#2CA58D" style="display:block"><path d="m318.205 289.694-8.66 32.792-41.477 59.007s-.764 18.284-1.194 22.801c-7.823-1.802-12.584-7.088-14.445-15.161 0 0-1.024-40.4-10.166-59.384-2.439-5.065-10.977-13.669-17.612-19.911a22.856 22.856 0 0 1-7.043-19.277l1.384-11.974 30.063-27.361s30.475 23.78 69.15 38.468zm-96.956-62.069-19.56 16.945-51.523-28.121-12.06-68.553s24.512-25.487 12.357-41.504c-6.504-8.571-10.476-11.444-19.499-7.239l-28.242-.423-7.033-28.359 17.837-17.618 155.684-.361 10.345 21.158-36.483 23.425L263.227 112l27.152-2.313s9.297 12.627 9.693 15.905c1.125 9.315-5.227 26.868-5.227 26.868l-44.538 1.686-13.817 27.326-26.914-20.095s-26.137 3.99-22.709 22.347l20.177 14.708 14.205 29.193zM463.115 88.056l-27.171 13.208c-4.823 2.975-26.501 17.638-26.501 17.638l32.806 1.254 50.839 18.336-12.878 30.298s-13.975 6.168-22.855-.519c-4.854-3.655-15.68-11.632-21.726-12.235-9.748-.972-47.549 19.559-47.549 19.559-22.044 17.346 2.291 34.405 16.338 51.087l27.141-2.8c1.695 1.889 7.362 46.441-.666 70.525 4.389 17.993 22.514 35.042 29.583 35.042 12.086 0 60.524-94.801 65.998-109.429l-27.328-4.171 20.621-34.78 8.812-31.339c11.542 9.548 38.972 27.517 48.007 53.822l12.999 1.187s5.319-33.039 22.604-33.48c4.475-.114 36.406 34.188 36.406 34.188s7.031-3.482 10.704-7.155c4.47-4.47-2.973-26.849-2.973-26.849s12.804-71.886 27.439-72.672l34.18-1.87c3.538 1.616 23.578-29.546 20.61-31.217-41.649-23.44-71.805-3.102-176.079-15.222-6.613-.769-17.382 17.854-17.382 17.854L506.195 79.02l-11.16-31.915-41.72-2.839c-7.698 4.212-28.059 22.752-28.059 22.752l37.859 21.038zm-188.09-68.657s29.426 4.588 42.032 16.424c12.606 11.836 8.393 30.921 11.842 32.409 9.577 4.133 23.503-34.031 23.503-34.031L413.054 6.71S285.198-7.747 275.025 19.399zm488.512 311.112-22.172-23.956-42.679 32.91c-13.879 2.83-28.668 14.7-29.379 28.847l-1.341 26.678 55.049-12.743 10.709 15.404a24.461 24.461 0 0 0 21.696 10.444l13.214-.872 27.336-37.452a12.949 12.949 0 0 0 .68-14.234l-11.96-20.183-2.803-30.073-18.35 25.23zM617.766 223.037l-5.097 8.41 27.014 36.954 56.323 17.33 18.86-1.274-64.479-24.976-32.621-36.444z" class="primary"/><path fill-opacity=".5" d="m103.58 74.694-8.66 32.792-41.477 59.007s-.764 18.284-1.194 22.801c-7.823-1.802-12.584-7.088-14.445-15.161 0 0-1.024-40.4-10.166-59.384-2.439-5.065-10.977-13.669-17.612-19.911a22.856 22.856 0 0 1-7.043-19.277l1.384-11.974L34.43 36.226s30.475 23.78 69.15 38.468zM6.624 12.625l-19.56 16.945-51.523-28.121-12.06-68.553s24.512-25.487 12.357-41.504c-6.504-8.571-10.476-11.444-19.499-7.239l-28.242-.423-7.033-28.359 17.837-17.618 155.684-.361L64.93-141.45l-36.483 23.425L48.602-103l27.152-2.313s9.297 12.627 9.693 15.905c1.125 9.315-5.227 26.868-5.227 26.868l-44.538 1.686-13.817 27.326-26.914-20.095s-26.137 3.99-22.709 22.347l20.177 14.708L6.624 12.625zM248.49-126.944l-27.171 13.208c-4.823 2.975-26.501 17.638-26.501 17.638l32.806 1.254 50.839 18.336-12.878 30.298s-13.975 6.168-22.855-.519c-4.854-3.655-15.68-11.632-21.726-12.235-9.748-.972-47.549 19.559-47.549 19.559C151.411-22.059 175.746-5 189.793 11.682l27.141-2.8c1.695 1.889 7.362 46.441-.666 70.525 4.389 17.993 22.514 35.042 29.583 35.042 12.086 0 60.524-94.801 65.998-109.429L284.521.849l20.621-34.78 8.812-31.339c11.542 9.548 38.972 27.517 48.007 53.822l12.999 1.187s5.319-33.039 22.604-33.48c4.475-.114 36.406 34.188 36.406 34.188s7.031-3.482 10.704-7.155c4.47-4.47-2.973-26.849-2.973-26.849s12.804-71.886 27.439-72.672l34.18-1.87c3.538 1.616 23.578-29.546 20.61-31.217-41.649-23.44-71.805-3.102-176.079-15.222-6.613-.769-17.382 17.854-17.382 17.854L291.57-135.98l-11.16-31.915-41.72-2.839c-7.698 4.212-28.059 22.752-28.059 22.752l37.859 21.038zM60.4-195.601s29.426 4.588 42.032 16.424c12.606 11.836 8.393 30.921 11.842 32.409 9.577 4.133 23.503-34.031 23.503-34.031l60.652-27.491S70.573-222.747 60.4-195.601zm488.512 311.112L526.74 91.555l-42.679 32.91c-13.879 2.83-28.668 14.7-29.379 28.847l-1.341 26.678 55.049-12.743 10.709 15.404a24.461 24.461 0 0 0 21.696 10.444l13.214-.872 27.336-37.452a12.949 12.949 0 0 0 .68-14.234l-11.96-20.183-2.803-30.073-18.35 25.23zM403.141 8.037l-5.097 8.41 27.014 36.954 56.323 17.33 18.86-1.274-64.479-24.976-32.621-36.444z" class="primary" style="mix-blend-mode:multiply" transform="translate(214.625 215)"/><path d="m1082.205 289.694-8.66 32.792-41.477 59.007s-.764 18.284-1.194 22.801c-7.823-1.802-12.584-7.088-14.445-15.161 0 0-1.024-40.4-10.166-59.384-2.439-5.065-10.977-13.669-17.612-19.911a22.856 22.856 0 0 1-7.043-19.277l1.384-11.974 30.063-27.361s30.475 23.78 69.15 38.468zm-96.956-62.069-19.56 16.945-51.523-28.121-12.06-68.553s24.512-25.487 12.357-41.504c-6.504-8.571-10.476-11.444-19.499-7.239l-28.242-.423-7.033-28.359 17.837-17.618 155.684-.361 10.345 21.158-36.483 23.425L1027.227 112l27.152-2.313s9.297 12.627 9.693 15.905c1.125 9.315-5.227 26.868-5.227 26.868l-44.538 1.686-13.817 27.326-26.914-20.095s-26.137 3.99-22.709 22.347l20.177 14.708 14.205 29.193zm241.866-139.569-27.171 13.208c-4.823 2.975-26.501 17.638-26.501 17.638l32.806 1.254 50.839 18.336-12.878 30.298s-13.975 6.168-22.855-.519c-4.854-3.655-15.68-11.632-21.726-12.235-9.748-.972-47.549 19.559-47.549 19.559-22.044 17.346 2.291 34.405 16.338 51.087l27.141-2.8c1.695 1.889 7.362 46.441-.666 70.525 4.389 17.993 22.514 35.042 29.583 35.042 12.086 0 60.524-94.801 65.998-109.429l-27.328-4.171 20.621-34.78 8.812-31.339c11.542 9.548 38.972 27.517 48.007 53.822l12.999 1.187s5.319-33.039 22.604-33.48c4.475-.114 36.406 34.188 36.406 34.188s7.031-3.482 10.704-7.155c4.47-4.47-2.973-26.849-2.973-26.849s12.804-71.886 27.439-72.672l34.18-1.87c3.538 1.616 23.578-29.546 20.61-31.217-41.649-23.44-71.805-3.102-176.079-15.222-6.613-.769-17.382 17.854-17.382 17.854l-38.899 10.704-11.16-31.915-41.72-2.839c-7.698 4.212-28.059 22.752-28.059 22.752l37.859 21.038zm-188.09-68.657s29.426 4.588 42.032 16.424c12.606 11.836 8.393 30.921 11.842 32.409 9.577 4.133 23.503-34.031 23.503-34.031l60.652-27.491s-127.856-14.457-138.029 12.689zm488.512 311.112-22.172-23.956-42.679 32.91c-13.879 2.83-28.668 14.7-29.379 28.847l-1.341 26.678 55.049-12.743 10.709 15.404a24.461 24.461 0 0 0 21.696 10.444l13.214-.872 27.336-37.452a12.949 12.949 0 0 0 .68-14.234l-11.96-20.183-2.803-30.073-18.35 25.23zm-145.771-107.474-5.097 8.41 27.014 36.954 56.323 17.33 18.86-1.274-64.479-24.976-32.621-36.444z" class="primary"/><path fill-opacity=".5" d="m103.58 74.694-8.66 32.792-41.477 59.007s-.764 18.284-1.194 22.801c-7.823-1.802-12.584-7.088-14.445-15.161 0 0-1.024-40.4-10.166-59.384-2.439-5.065-10.977-13.669-17.612-19.911a22.856 22.856 0 0 1-7.043-19.277l1.384-11.974L34.43 36.226s30.475 23.78 69.15 38.468zM6.624 12.625l-19.56 16.945-51.523-28.121-12.06-68.553s24.512-25.487 12.357-41.504c-6.504-8.571-10.476-11.444-19.499-7.239l-28.242-.423-7.033-28.359 17.837-17.618 155.684-.361L64.93-141.45l-36.483 23.425L48.602-103l27.152-2.313s9.297 12.627 9.693 15.905c1.125 9.315-5.227 26.868-5.227 26.868l-44.538 1.686-13.817 27.326-26.914-20.095s-26.137 3.99-22.709 22.347l20.177 14.708L6.624 12.625zM248.49-126.944l-27.171 13.208c-4.823 2.975-26.501 17.638-26.501 17.638l32.806 1.254 50.839 18.336-12.878 30.298s-13.975 6.168-22.855-.519c-4.854-3.655-15.68-11.632-21.726-12.235-9.748-.972-47.549 19.559-47.549 19.559C151.411-22.059 175.746-5 189.793 11.682l27.141-2.8c1.695 1.889 7.362 46.441-.666 70.525 4.389 17.993 22.514 35.042 29.583 35.042 12.086 0 60.524-94.801 65.998-109.429L284.521.849l20.621-34.78 8.812-31.339c11.542 9.548 38.972 27.517 48.007 53.822l12.999 1.187s5.319-33.039 22.604-33.48c4.475-.114 36.406 34.188 36.406 34.188s7.031-3.482 10.704-7.155c4.47-4.47-2.973-26.849-2.973-26.849s12.804-71.886 27.439-72.672l34.18-1.87c3.538 1.616 23.578-29.546 20.61-31.217-41.649-23.44-71.805-3.102-176.079-15.222-6.613-.769-17.382 17.854-17.382 17.854L291.57-135.98l-11.16-31.915-41.72-2.839c-7.698 4.212-28.059 22.752-28.059 22.752l37.859 21.038zM60.4-195.601s29.426 4.588 42.032 16.424c12.606 11.836 8.393 30.921 11.842 32.409 9.577 4.133 23.503-34.031 23.503-34.031l60.652-27.491S70.573-222.747 60.4-195.601zm488.512 311.112L526.74 91.555l-42.679 32.91c-13.879 2.83-28.668 14.7-29.379 28.847l-1.341 26.678 55.049-12.743 10.709 15.404a24.461 24.461 0 0 0 21.696 10.444l13.214-.872 27.336-37.452a12.949 12.949 0 0 0 .68-14.234l-11.96-20.183-2.803-30.073-18.35 25.23zM403.141 8.037l-5.097 8.41 27.014 36.954 56.323 17.33 18.86-1.274-64.479-24.976-32.621-36.444z" class="primary" style="mix-blend-mode:multiply" transform="translate(978.625 215)"/></g><g mask="url(#u)" style="display:block"><path fill="#2CA58D" d="m330.705 279.694-8.66 32.792-41.477 59.007s-.764 18.284-1.194 22.801c-7.823-1.802-12.584-7.088-14.445-15.161 0 0-1.024-40.4-10.166-59.384-2.439-5.065-10.977-13.669-17.612-19.911a22.856 22.856 0 0 1-7.043-19.277l.384-14.349 30.063-27.361s31.475 26.155 70.15 40.843zm-96.956-62.069-19.56 16.945-51.523-28.121-12.06-68.553s24.512-25.487 12.357-41.504c-6.504-8.571-10.476-11.444-19.499-7.239l-28.242-.423-7.033-28.359 17.837-17.618 155.684-.361 18.097 28.905-36.482 23.425L275.727 102l27.152-2.313s9.297 12.627 9.693 15.905c1.125 9.315-7.227 45.868-7.227 45.868l-32.538 1.186-23.817 8.826-8.914 22.905s-44.137-39.01-40.709-20.653l20.177 14.708 14.205 29.193zM475.615 78.056l-27.171 13.208c-4.823 2.975-26.501 17.638-26.501 17.638l32.806 1.254 50.839 18.336-12.878 30.298s-13.975 6.168-22.855-.519c-4.854-3.655-15.68-11.632-21.726-12.235-9.748-.972-47.549 19.559-47.549 19.559-22.044 17.346 2.291 34.405 16.338 51.087l27.141-2.8c1.695 1.889 7.362 46.441-.666 70.525 4.389 17.993 22.514 35.042 29.583 35.042 12.086 0 60.524-94.801 65.998-109.429l-27.328-4.171 20.621-34.78 8.812-31.339c11.542 9.548 38.972 27.517 48.007 53.822l12.999 1.187s5.319-33.039 22.604-33.48c4.475-.114 36.406 34.188 36.406 34.188s7.031-3.482 10.704-7.155c4.47-4.47-2.973-26.849-2.973-26.849s12.804-71.886 27.439-72.672l34.18-1.87c3.538 1.616 23.578-29.546 20.61-31.217-41.649-23.44-71.805-3.102-176.079-15.222-6.613-.769-17.382 17.854-17.382 17.854L518.695 69.02l-11.16-31.915-41.72-2.839c-7.698 4.212-28.059 22.752-28.059 22.752l37.859 21.038zM287.525 9.399s29.426 4.588 42.032 16.424c12.606 11.836 8.393 30.921 11.842 32.409 9.577 4.133 23.503-34.031 23.503-34.031L425.554-3.29S297.698-17.747 287.525 9.399zm485.762 286.862-23.735-4.143-42.679 32.91c-13.879 2.83-24.355 19.137-25.066 33.284l-1.341 26.678 55.049-12.743 10.709 15.404a24.461 24.461 0 0 0 21.696 10.444l13.214-.872 27.336-37.452a12.949 12.949 0 0 0 .68-14.234l-11.96-20.183-2.803-30.073-21.1.98zm-143.021-83.224-5.097 8.41 27.014 36.954 56.323 17.33 18.86-1.274-64.479-24.976-32.621-36.444zm462.439 64.157-8.66 32.792-41.477 59.007s-.764 18.284-1.194 22.801c-7.823-1.802-12.584-7.088-14.445-15.161 0 0-1.024-40.4-10.166-59.384-2.439-5.065-10.977-13.669-17.612-19.911a22.856 22.856 0 0 1-7.043-19.277l-.116-13.224 30.063-27.361s31.975 25.03 70.65 39.718zm-96.956-62.069-19.56 16.945-51.523-28.121-12.06-68.553s24.512-25.487 12.357-41.504c-6.504-8.571-10.476-11.444-19.499-7.239l-28.242-.423-7.033-28.359 17.837-17.618 155.684-.361 10.345 21.158-36.483 23.425 20.155 15.025 27.152-2.313s9.297 12.627 9.693 15.905c1.125 9.315-5.458 46.868-5.458 46.868l-44.538 1.686-27.086 26.326-14.414-11.095s-25.137-24.01-21.709-5.653l20.177 14.708 14.205 29.193zm241.866-139.569-27.171 13.208c-4.823 2.975-26.501 17.638-26.501 17.638l32.806 1.254 50.839 18.336-12.878 30.298s-13.975 6.168-22.855-.519c-4.854-3.655-15.68-11.632-21.726-12.235-9.748-.972-47.549 19.559-47.549 19.559-22.044 17.346 2.291 34.405 16.338 51.087l27.141-2.8c1.695 1.889 7.362 46.441-.666 70.525 4.389 17.993 22.514 35.042 29.583 35.042 12.086 0 60.524-94.801 65.998-109.429l-27.328-4.171 20.621-34.78 8.812-31.339c11.542 9.548 38.972 27.517 48.007 53.822l12.999 1.187s5.319-33.039 22.604-33.48c4.475-.114 36.406 34.188 36.406 34.188s7.031-3.482 10.704-7.155c4.47-4.47-2.973-26.849-2.973-26.849s12.804-71.886 27.439-72.672l34.18-1.87c3.538 1.616 23.578-29.546 20.61-31.217-41.649-23.44-71.805-3.102-176.079-15.222-6.613-.769-17.382 17.854-17.382 17.854l-38.899 10.704-11.16-31.915-41.72-2.839c-7.698 4.212-28.059 22.752-28.059 22.752l37.859 21.038zm-188.09-68.657s29.426 4.588 42.032 16.424c12.606 11.836 8.393 30.921 11.842 32.409 9.577 4.133 23.503-34.031 23.503-34.031l60.652-27.491s-127.856-14.457-138.029 12.689zm488.512 311.112-22.172-23.956-42.679 32.91c-13.879 2.83-28.668 14.7-29.379 28.847l-1.341 26.678 55.049-12.743 10.709 15.404a24.461 24.461 0 0 0 21.696 10.444l13.214-.872 27.336-37.452a12.949 12.949 0 0 0 .68-14.234l-11.96-20.183-2.803-30.073-18.35 25.23zm-145.771-107.474-5.097 8.41 27.014 36.954 56.323 17.33 18.86-1.274-64.479-24.976-32.621-36.444z" class="primary"/></g></g></g><g clip-path="url(#v)" style="display:none"><g style="display:none"><path class="secondary"/><path class="secondary" style="mix-blend-mode:multiply"/></g><g mask="url(#w)" style="display:none"><path class="secondary"/></g><g clip-path="url(#x)" mask="url(#y)" style="display:none"><path class="primary" style="display:none"/><g mask="url(#z)" style="mix-blend-mode:multiply;display:none"><path class="primary"/></g></g></g></g></svg>